<?xml version="1.0" encoding="UTF-8"?>
<svg version="1.1" xmlns="http://www.w3.org/2000/svg" width="273" height="71">
<path d="M0 0 C5.61 0 11.22 0 17 0 C17 0.99 17 1.98 17 3 C15.35 3 13.7 3 12 3 C12.21205078 3.70608398 12.42410156 4.41216797 12.64257812 5.13964844 C13.60069455 8.3414419 14.55043067 11.54566181 15.5 14.75 C15.83386719 15.86117187 16.16773437 16.97234375 16.51171875 18.1171875 C16.82753906 19.18710937 17.14335937 20.25703125 17.46875 21.359375 C17.76201172 22.34389648 18.05527344 23.32841797 18.35742188 24.34277344 C19 27 19 27 19 31 C19.66 31 20.32 31 21 31 C21.16435547 30.10861328 21.16435547 30.10861328 21.33203125 29.19921875 C22.23203332 24.49432988 23.28088914 19.91177982 24.625 15.3125 C25.83942925 11.01622767 26.29629962 7.44449432 26 3 C24.35 3 22.7 3 21 3 C21 2.01 21 1.02 21 0 C26.61 0 32.22 0 38 0 C38 0.99 38 1.98 38 3 C36.35 3 34.7 3 33 3 C35.64 12.24 38.28 21.48 41 31 C42.134375 27.308125 43.26875 23.61625 44.4375 19.8125 C44.97201782 18.07963745 44.97201782 18.07963745 45.51733398 16.31176758 C45.79907471 15.39032959 46.08081543 14.4688916 46.37109375 13.51953125 C46.65911865 12.58214111 46.94714355 11.64475098 47.24389648 10.67895508 C47.9627763 8.13188753 48.51932033 5.60144665 49 3 C47.35 3 45.7 3 44 3 C44 2.01 44 1.02 44 0 C48.95 0 53.9 0 59 0 C59 0.99 59 1.98 59 3 C57.35 3 55.7 3 54 3 C53.79246094 3.86496094 53.58492187 4.72992188 53.37109375 5.62109375 C51.17824328 14.58517289 48.79530243 23.48673294 46.3125 32.375 C46.00304443 33.48673584 45.69358887 34.59847168 45.37475586 35.74389648 C45.08221924 36.78489502 44.78968262 37.82589355 44.48828125 38.8984375 C44.22571533 39.83349121 43.96314941 40.76854492 43.69262695 41.73193359 C43 44 43 44 42 46 C40.35 46 38.7 46 37 46 C36.79318604 45.25314941 36.58637207 44.50629883 36.37329102 43.73681641 C35.43848067 40.36561887 34.50053089 36.99530278 33.5625 33.625 C33.23701172 32.449375 32.91152344 31.27375 32.57617188 30.0625 C32.26357422 28.94101562 31.95097656 27.81953125 31.62890625 26.6640625 C31.1968689 25.10872803 31.1968689 25.10872803 30.75610352 23.52197266 C30.0892182 21.03550626 30.0892182 21.03550626 29 19 C26.36 27.91 23.72 36.82 21 46 C19.35 46 17.7 46 16 46 C15.66266846 44.73816895 15.32533691 43.47633789 14.9777832 42.17626953 C13.72187157 37.50021594 12.43895438 32.83193461 11.14770508 28.16552734 C10.59244062 26.1441115 10.04454053 24.1206578 9.50415039 22.09521484 C8.72644522 19.18541421 7.92261803 16.28395108 7.11328125 13.3828125 C6.87660233 12.47443634 6.6399234 11.56606018 6.39607239 10.63015747 C5.11611815 5.61285836 5.11611815 5.61285836 1.30541992 2.41357422 C0.54463135 2.27709473 -0.21615723 2.14061523 -1 2 C-0.67 1.34 -0.34 0.68 0 0 Z " fill="#000000" transform="translate(3,19)"/>
<path d="M0 0 C0.33 5.94 0.66 11.88 1 18 C1.66 17.67 2.32 17.34 3 17 C9.48825463 16.19392356 13.78497845 17.03658362 19 21 C23.04617543 26.22087152 22.78889994 32.68013125 22 39 C20.0171377 43.03654111 17.83420139 45.6500056 14 48 C8.31632113 49.89455962 3.50196983 49.14711018 -2 47 C-2.66 47.66 -3.32 48.32 -4 49 C-4.99 49 -5.98 49 -7 49 C-7.495 28.21 -7.495 28.21 -8 7 C-8.99 6.67 -9.98 6.34 -11 6 C-5.2 0 -5.2 0 0 0 Z M1.8359375 21.4609375 C-0.87152016 25.20529384 -0.5864066 28.49245552 -0.5 33 C-0.51546875 33.80695312 -0.5309375 34.61390625 -0.546875 35.4453125 C-0.5214592 39.29580568 -0.47107779 41.35426413 1.84375 44.52734375 C4.82026591 46.56021784 6.47245026 46.66141558 10 46 C13.93628863 42.06371137 15.14920691 38.65552518 15.25 33.1875 C15.20203758 27.71179025 13.93287739 23.93287739 10 20 C6.58393196 19.55442591 4.72632277 19.50966658 1.8359375 21.4609375 Z " fill="#000000" transform="translate(107,17)"/>
<path d="M0 0 C2.2433866 1.46829926 3.77335345 2.76155065 4.98046875 5.17578125 C5.13391084 7.06050984 5.23006446 8.95005999 5.296875 10.83984375 C5.33876953 11.96132813 5.38066406 13.0828125 5.42382812 14.23828125 C5.46314453 15.41390625 5.50246094 16.58953125 5.54296875 17.80078125 C5.58615234 18.98414062 5.62933594 20.1675 5.67382812 21.38671875 C5.78014301 24.31628453 5.88217517 27.24593713 5.98046875 30.17578125 C-0.76953125 30.30078125 -0.76953125 30.30078125 -3.01953125 29.17578125 C-3.67953125 29.50578125 -4.33953125 29.83578125 -5.01953125 30.17578125 C-10.67417217 30.76045609 -15.41596589 31.17422761 -20.33203125 28.11328125 C-22.01953125 25.17578125 -22.01953125 25.17578125 -22.33203125 21.67578125 C-20.48902141 16.76108834 -17.67551222 15.29665514 -13.01953125 13.17578125 C-9.02828774 11.77884602 -6.25476539 11.17578125 -2.01953125 11.17578125 C-2.34913341 6.16043073 -2.34913341 6.16043073 -5.01953125 2.17578125 C-7.60307343 2.00890677 -7.60307343 2.00890677 -10.01953125 2.17578125 C-10.32890625 3.14515625 -10.63828125 4.11453125 -10.95703125 5.11328125 C-12.01953125 8.17578125 -12.01953125 8.17578125 -13.01953125 9.17578125 C-15.01911489 9.21658908 -17.01998379 9.21832481 -19.01953125 9.17578125 C-19.76953125 6.92578125 -19.76953125 6.92578125 -20.01953125 4.17578125 C-15.44914993 -1.70042331 -6.80627235 -2.77780167 0 0 Z M-12.01953125 17.17578125 C-14.07010788 19.75553894 -15.10854299 21.10764033 -14.83203125 24.42578125 C-14.15021308 26.36999316 -14.15021308 26.36999316 -12.01953125 27.17578125 C-8.79289111 27.45635865 -6.71266856 27.55464662 -3.83984375 25.984375 C-1.78917861 24.30327615 -1.78917861 24.30327615 -1.62890625 21.6953125 C-1.6753125 20.80199219 -1.72171875 19.90867187 -1.76953125 18.98828125 C-1.805625 18.08722656 -1.84171875 17.18617187 -1.87890625 16.2578125 C-1.9253125 15.57074219 -1.97171875 14.88367187 -2.01953125 14.17578125 C-6.45291428 14.17578125 -8.28986577 14.8744983 -12.01953125 17.17578125 Z " fill="#000000" transform="translate(260.01953125,34.82421875)"/>
<path d="M0 0 C3.28236911 2.29002496 4.87055686 4.31099615 6.6875 7.875 C6.6875 9.855 6.6875 11.835 6.6875 13.875 C-0.9025 13.875 -8.4925 13.875 -16.3125 13.875 C-15.17611825 22.02763887 -15.17611825 22.02763887 -10.3125 26.875 C-7.22451527 27.47917093 -5.33712529 27.51925395 -2.62890625 25.81640625 C-0.42211008 24.03297625 1.40770511 22.43458977 2.6875 19.875 C4.0075 19.875 5.3275 19.875 6.6875 19.875 C6.21473148 24.12991665 3.76202523 26.10042845 0.6875 28.875 C-3.72950482 31.08350241 -9.50470965 30.29612032 -14.3125 29.875 C-18.83098738 27.77156622 -21.37081307 25.4737322 -23.3125 20.875 C-24.79144225 14.78726097 -24.60554174 10.39881195 -21.3125 4.875 C-15.27276977 -1.47741381 -8.18652883 -2.78033054 0 0 Z M-12.5625 3 C-15.76988634 5.83892771 -15.76988634 5.83892771 -16.3125 10.875 C-11.0325 10.875 -5.7525 10.875 -0.3125 10.875 C-0.79726316 5.34760426 -0.79726316 5.34760426 -2.5625 3.0625 C-6.59878493 0.32359237 -8.41295098 0.28683334 -12.5625 3 Z " fill="#000000" transform="translate(86.3125,35.125)"/>
<path d="M0 0 C3.5 1.8125 3.5 1.8125 6 4 C6.8971875 4.7734375 6.8971875 4.7734375 7.8125 5.5625 C10.78777208 9.16414515 10.32996493 13.78294598 10.27734375 18.203125 C9.84896329 22.52313075 8.70296446 24.5857291 6 28 C0.76971647 32.05346973 -5.67121804 31.77264965 -12 31 C-15.81151433 29.26141451 -17.42797583 27.78176637 -19.875 24.4375 C-21.75418352 18.69555036 -22.1005675 12.72245644 -19.8125 7.0625 C-13.84139222 0.26779115 -8.7863642 -0.9183488 0 0 Z M-13 7 C-14.91510096 12.74530289 -14.77244431 18.90336545 -12.6875 24.5625 C-11.06906832 27.21999539 -11.06906832 27.21999539 -8 29 C-3.0381134 28.8661832 -3.0381134 28.8661832 0.875 26.125 C3.62614569 20.92839148 3.46789417 15.74606875 3 10 C1.46696367 5.8389014 0.69096643 4.46064429 -3 2 C-8.02172594 1.07494522 -9.87215976 3.2639686 -13 7 Z " fill="#000000" transform="translate(177,34)"/>
<path d="M0 0 C0.99 0 1.98 0 3 0 C3 3.3 3 6.6 3 10 C5.97 10 8.94 10 12 10 C12 10.66 12 11.32 12 12 C9.03 12 6.06 12 3 12 C3.33 19.59 3.66 27.18 4 35 C4.99 35.33 5.98 35.66 7 36 C9.67676547 34.62750037 9.67676547 34.62750037 12 33 C12.33 33.99 12.66 34.98 13 36 C11.22825921 38.46503067 9.88445504 39.84833352 6.8359375 40.37109375 C0.66279389 40.54201141 0.66279389 40.54201141 -1.71484375 38.59765625 C-4.12962486 35.59569433 -4.11844916 33.55774688 -4.09765625 29.7734375 C-4.09443359 28.7421875 -4.09121094 27.7109375 -4.08789062 26.6484375 C-4.07951172 25.56820312 -4.07113281 24.48796875 -4.0625 23.375 C-4.05798828 22.28703125 -4.05347656 21.1990625 -4.04882812 20.078125 C-4.03701776 17.38536211 -4.02054778 14.69270812 -4 12 C-5.32 12 -6.64 12 -8 12 C-8 11.34 -8 10.68 -8 10 C-7.236875 9.608125 -6.47375 9.21625 -5.6875 8.8125 C-2.02360316 6.34149981 -1.47271683 4.10810485 0 0 Z " fill="#000000" transform="translate(140,25)"/>
<path d="M0 0 C0.66 0.66 1.32 1.32 2 2 C1.46428571 5.53571429 1.46428571 5.53571429 0 7 C-2.59223601 7.14012087 -4.64447888 7.11502154 -7.125 6.3125 C-7.74375 6.209375 -8.3625 6.10625 -9 6 C-11.09178921 7.57307403 -11.91392666 8.47313241 -12.34057617 11.0847168 C-12.3170105 12.25514526 -12.3170105 12.25514526 -12.29296875 13.44921875 C-12.2784668 14.72055664 -12.2784668 14.72055664 -12.26367188 16.01757812 C-12.23853516 16.89865234 -12.21339844 17.77972656 -12.1875 18.6875 C-12.17396484 19.58017578 -12.16042969 20.47285156 -12.14648438 21.39257812 C-12.11114079 23.59566166 -12.06180493 25.79752582 -12 28 C-11.01 28.33 -10.02 28.66 -9 29 C-9 29.66 -9 30.32 -9 31 C-13.95 31 -18.9 31 -24 31 C-24 30.34 -24 29.68 -24 29 C-23.01 28.67 -22.02 28.34 -21 28 C-21 21.4 -21 14.8 -21 8 C-21.99 8 -22.98 8 -24 8 C-22.64696511 3.94089532 -20.65563269 3.0786931 -17 1 C-15.68 1 -14.36 1 -13 1 C-12.67 1.99 -12.34 2.98 -12 4 C-11.566875 3.525625 -11.13375 3.05125 -10.6875 2.5625 C-7.49796097 -0.39077688 -4.14804643 -0.26476892 0 0 Z " fill="#000000" transform="translate(216,33)"/>
<path d="M0 0 C0.33 8.58 0.66 17.16 1 26 C1.99 26.33 2.98 26.66 4 27 C4 27.66 4 28.32 4 29 C-0.95 29 -5.9 29 -11 29 C-11 28.34 -11 27.68 -11 27 C-10.01 26.67 -9.02 26.34 -8 26 C-8 19.4 -8 12.8 -8 6 C-8.99 6 -9.98 6 -11 6 C-9.17559425 0.52678274 -5.4446504 -1.3611626 0 0 Z " fill="#000000" transform="translate(232,35)"/>
<path d="M0 0 C0.625 1.875 0.625 1.875 1 4 C-1 6 -1 6 -4.0625 6.1875 C-7 6 -7 6 -8 5 C-8.04063832 3.33382885 -8.042721 1.66611905 -8 0 C-5.13822943 -1.43088528 -3.06624227 -0.59991697 0 0 Z " fill="#000000" transform="translate(232,19)"/>
</svg>
